<svg xmlns="http://www.w3.org/2000/svg" viewBox="0 0 29 20.3"><defs><clipPath id="a"><path data-name="長方形 3966" fill="none" d="M0 0H29V20.3H0z"/></clipPath></defs><g data-name="グループ 12075"><g data-name="グループ 12074" clip-path="url(#a)"><path data-name="パス 36607" d="M28.4 3.2A3.6 3.6 0 0 0 25.8.6C23.6 0 14.5 0 14.5 0s-9 0-11.3.6A3.6 3.6 0 0 0 .6 3.2a37.7 37.7 0 0 0-.6 7 37.7 37.7 0 0 0 .6 7 3.6 3.6 0 0 0 2.6 2.5c2.2.6 11.3.6 11.3.6s9 0 11.3-.6a3.6 3.6 0 0 0 2.6-2.6 37.7 37.7 0 0 0 .6-7 37.7 37.7 0 0 0-.6-7" fill="red"/><path data-name="パス 36608" d="m48.6 33 7.5-4.3-7.5-4.4Z" transform="translate(-37 -18.5)" fill="#fff"/></g></g></svg>