<svg xmlns="http://www.w3.org/2000/svg" viewBox="0 0 29 29"><defs><clipPath id="a"><path data-name="長方形 3968" fill="none" d="M0 0H29V29H0z"/></clipPath></defs><g data-name="グループ 12077" clip-path="url(#a)"><path data-name="パス 36615" d="M29 14.5a14.5 14.5 0 1 0-16.8 14.3V18.7H8.6v-4.2h3.6v-3.2c0-3.6 2.2-5.6 5.5-5.6a22.3 22.3 0 0 1 3.3.2v3.6H19a2.1 2.1 0 0 0-2.3 2.3v2.7h4l-.7 4.2h-3.3v10.1A14.5 14.5 0 0 0 29 14.5" fill="#1877f2"/><path data-name="パス 36616" d="m19 18 .6-4.3h-4V11a2.1 2.1 0 0 1 2.3-2.3h1.9V5.2a22.3 22.3 0 0 0-3.3-.3c-3.3 0-5.4 2-5.4 5.6v3.2H7.4V18H11V28a14.6 14.6 0 0 0 4.5 0V18Z" transform="translate(1.2 .8)" fill="#fff"/></g></svg>